HIERARCHY
ROOT joint_Root
{
	OFFSET 0.0 0.0 0.0
	CHANNELS 6 Xposition Yposition Zposition Zrotation Xrotation Yrotation 
	JOINT Hips
	{
		OFFSET 4.5925 91.4895 -427.239
		CHANNELS 6 Xposition Yposition Zposition Zrotation Xrotation Yrotation 
		JOINT Spine
		{
			OFFSET 15.7357 0.0 0.0
			CHANNELS 6 Xposition Yposition Zposition Zrotation Xrotation Yrotation 
			JOINT Chest
			{
				OFFSET 8.98455 -0.406207 0.0
				CHANNELS 6 Xposition Yposition Zposition Zrotation Xrotation Yrotation 
				JOINT Neck
				{
					OFFSET 16.3773 0.0 0.0
					CHANNELS 6 Xposition Yposition Zposition Zrotation Xrotation Yrotation 
					JOINT Head
					{
						OFFSET 6.45672 0.0 0.0
						CHANNELS 6 Xposition Yposition Zposition Zrotation Xrotation Yrotation 
						End Site
						{
							OFFSET 0.0 0.0 0.0
						}
					}
				}
				JOINT Shoulder_L
				{
					OFFSET 12.9942 -0.242716 4.98039
					CHANNELS 6 Xposition Yposition Zposition Zrotation Xrotation Yrotation 
					JOINT UpperArm_L
					{
						OFFSET 5.34809 0.0 0.0
						CHANNELS 6 Xposition Yposition Zposition Zrotation Xrotation Yrotation 
						JOINT LowerArm_L
						{
							OFFSET 24.3286 1.87007e-05 0.0
							CHANNELS 6 Xposition Yposition Zposition Zrotation Xrotation Yrotation 
							JOINT Hand_L
							{
								OFFSET 22.2916 0.0 0.0
								CHANNELS 6 Xposition Yposition Zposition Zrotation Xrotation Yrotation 
								End Site
								{
									OFFSET 0.0 0.0 0.0
								}
							}
						}
					}
				}
				JOINT Shoulder_R
				{
					OFFSET 12.9945 -0.242716 -4.98039
					CHANNELS 6 Xposition Yposition Zposition Zrotation Xrotation Yrotation 
					JOINT UpperArm_R
					{
						OFFSET -5.34813 0.0 0.0
						CHANNELS 6 Xposition Yposition Zposition Zrotation Xrotation Yrotation 
						JOINT LowerArm_R
						{
							OFFSET -24.3289 0.000322201 0.0
							CHANNELS 6 Xposition Yposition Zposition Zrotation Xrotation Yrotation 
							JOINT Hand_R
							{
								OFFSET -22.2915 -0.000108084 0.0
								CHANNELS 6 Xposition Yposition Zposition Zrotation Xrotation Yrotation 
								End Site
								{
									OFFSET 0.0 0.0 0.0
								}
							}
						}
					}
				}
			}
		}
		JOINT UpperLeg_L
		{
			OFFSET -2.19248 -6.46944 0.0
			CHANNELS 6 Xposition Yposition Zposition Zrotation Xrotation Yrotation 
			JOINT LowerLeg_L
			{
				OFFSET 39.0811 0.0 -1.23785e-05
				CHANNELS 6 Xposition Yposition Zposition Zrotation Xrotation Yrotation 
				JOINT Foot_L
				{
					OFFSET 40.9854 0.0 -1.26872e-05
					CHANNELS 6 Xposition Yposition Zposition Zrotation Xrotation Yrotation 
					JOINT Toes_L
					{
						OFFSET 11.7543 0.0 0.0
						CHANNELS 6 Xposition Yposition Zposition Zrotation Xrotation Yrotation 
						End Site
						{
							OFFSET 0.0 0.0 0.0
						}
					}
				}
			}
		}
		JOINT UpperLeg_R
		{
			OFFSET -2.19251 6.46944 0.0
			CHANNELS 6 Xposition Yposition Zposition Zrotation Xrotation Yrotation 
			JOINT LowerLeg_R
			{
				OFFSET -39.0811 -0.00228153 -0.0401928
				CHANNELS 6 Xposition Yposition Zposition Zrotation Xrotation Yrotation 
				JOINT Foot_R
				{
					OFFSET -40.9854 0.0 0.0
					CHANNELS 6 Xposition Yposition Zposition Zrotation Xrotation Yrotation 
					JOINT Toes_R
					{
						OFFSET -11.7543 0.0 0.0
						CHANNELS 6 Xposition Yposition Zposition Zrotation Xrotation Yrotation 
						End Site
						{
							OFFSET 0.0 0.0 0.0
						}
					}
				}
			}
		}
	}
}
MOTION
Frames:	8
Frame Time:	0.0333333
0.000000 0.000000 0.000000 0.000000 0.000000 -0.000000 -0.943717 90.487000 2.495790 89.753700 -2.536930 11.749500 15.735700 0.000005 -0.000001 87.332000 81.386600 -87.187900 8.984550 -0.406207 -0.000000 9.443690 -0.795215 0.353595 16.377300 -0.000001 -0.000001 5.124570 -3.726730 0.992403 6.456720 -0.000001 -0.000000 -4.204300 -4.016060 1.185900 12.994200 -0.242716 4.980390 -92.005900 7.182350 -74.351100 5.348090 -0.000007 -0.000001 -60.687400 37.165200 -17.079600 24.328600 0.000019 0.000005 8.090950 24.021100 -19.249800 22.291600 -0.000001 0.000005 9.356780 5.226230 2.052700 12.994500 -0.242716 -4.980390 88.437100 11.864200 -82.440600 -5.348130 -0.000001 -0.000004 -61.082600 35.786800 -11.577200 -24.328900 0.000322 -0.000009 0.690232 2.135970 -17.938300 -22.291500 -0.000108 -0.000004 13.784900 5.388590 -2.570250 -2.192480 -6.469440 -0.000000 -173.910000 -12.973700 3.827410 39.081100 -0.000007 -0.000012 -0.208215 0.350697 30.698600 40.985400 -0.000006 -0.000013 0.154522 5.632130 -72.341100 11.754300 -0.000000 0.000003 -0.000149 -0.001442 -16.632400 -2.192510 6.469440 -0.000001 172.526000 20.590000 -174.947000 -39.081100 -0.002282 -0.040193 -0.232824 0.404181 30.294100 -40.985400 0.000008 0.000006 3.813240 14.488300 -72.997300 -11.754300 -0.000006 -0.000006 -0.001319 -0.019836 -17.379700
0.000000 0.000000 0.000000 0.000000 0.000000 -0.000000 -1.043680 90.510600 2.300680 89.794300 -2.374280 11.786500 15.735700 0.000005 -0.000001 87.303100 81.391500 -87.148600 8.984550 -0.406207 -0.000000 9.433600 -0.803256 0.375001 16.377300 -0.000001 -0.000001 6.064220 -3.898890 0.980884 6.456720 -0.000001 -0.000000 -2.949250 -4.221610 0.999105 12.994200 -0.242716 4.980390 -92.102900 7.461960 -74.212400 5.348090 -0.000007 -0.000001 -59.081600 36.702300 -18.426100 24.328600 0.000019 0.000005 9.056560 24.580200 -20.966300 22.291600 -0.000001 0.000005 9.071000 5.224580 2.094740 12.994500 -0.242716 -4.980390 88.420200 11.739900 -82.280800 -5.348130 -0.000001 -0.000004 -61.853100 36.148400 -11.224300 -24.328900 0.000322 -0.000009 0.707397 2.173940 -18.054800 -22.291500 -0.000108 -0.000004 13.657000 5.385900 -2.484630 -2.192480 -6.469440 -0.000000 -173.921000 -12.859300 3.706730 39.081100 -0.000007 -0.000012 -0.209132 0.352626 30.671200 40.985400 -0.000006 -0.000013 0.103664 5.676010 -72.159000 11.754300 -0.000000 0.000003 -0.000140 -0.001371 -16.629800 -2.192510 6.469440 -0.000001 172.541000 20.811100 -175.026000 -39.081100 -0.002282 -0.040193 -0.231260 0.401214 30.312200 -40.985400 0.000008 0.000006 3.913820 14.490900 -72.911700 -11.754300 -0.000006 -0.000006 -0.001351 -0.020274 -17.397500
0.000000 0.000000 0.000000 0.000000 0.000000 -0.000000 -1.171020 90.528700 2.106840 89.808900 -2.135820 11.892700 15.735700 0.000005 -0.000001 87.277800 81.383300 -87.111800 8.984550 -0.406207 -0.000000 9.449860 -0.811363 0.398821 16.377300 -0.000001 -0.000001 7.025840 -4.126140 1.011290 6.456720 -0.000001 -0.000000 -1.438660 -4.457620 0.801880 12.994200 -0.242716 4.980390 -92.161500 7.629650 -74.130600 5.348090 -0.000007 -0.000001 -57.183800 35.070600 -20.239300 24.328600 0.000019 0.000005 9.823490 24.260200 -22.851300 22.291600 -0.000001 0.000005 9.069710 5.231360 1.920020 12.994500 -0.242716 -4.980390 88.415900 11.631500 -82.189500 -5.348130 -0.000001 -0.000004 -62.537200 36.645200 -10.844900 -24.328900 0.000322 -0.000009 0.663307 2.015860 -18.244800 -22.291500 -0.000108 -0.000004 13.548900 5.387480 -2.534350 -2.192480 -6.469440 -0.000000 -173.857000 -12.743400 3.626930 39.081100 -0.000007 -0.000012 -0.208475 0.351326 30.685000 40.985400 -0.000006 -0.000013 0.069479 5.845080 -71.986100 11.754300 -0.000000 0.000003 -0.000147 -0.001429 -16.631900 -2.192510 6.469440 -0.000001 172.578000 21.017400 -175.014000 -39.081100 -0.002282 -0.040193 -0.228207 0.395790 30.324800 -40.985400 0.000008 0.000006 4.020170 14.446100 -72.842100 -11.754300 -0.000006 -0.000006 -0.001294 -0.019497 -17.365900
0.000000 0.000000 0.000000 0.000000 0.000000 -0.000000 -1.316990 90.541000 1.916690 89.837100 -1.804330 11.986000 15.735700 0.000005 -0.000001 87.226200 81.402100 -87.040800 8.984550 -0.406207 -0.000000 9.411630 -0.824789 0.438403 16.377300 -0.000001 -0.000001 8.241820 -4.314390 0.939750 6.456720 -0.000001 -0.000000 0.074349 -4.732250 0.735686 12.994200 -0.242716 4.980390 -92.193800 7.698970 -74.042300 5.348090 -0.000007 -0.000001 -54.998700 32.801700 -22.591500 24.328600 0.000019 0.000005 10.502400 23.542000 -24.897800 22.291600 -0.000001 0.000005 9.332970 5.218980 2.238180 12.994500 -0.242716 -4.980390 88.410800 11.572900 -82.126100 -5.348130 -0.000001 -0.000004 -62.954700 37.370400 -10.588200 -24.328900 0.000322 -0.000009 0.599618 1.811550 -18.347900 -22.291500 -0.000108 -0.000004 13.510300 5.389150 -2.588520 -2.192480 -6.469440 -0.000000 -173.814000 -12.561700 3.511990 39.081100 -0.000007 -0.000012 -0.209188 0.352059 30.718500 40.985400 -0.000006 -0.000013 0.028148 6.028400 -71.816900 11.754300 -0.000000 0.000003 -0.000143 -0.001397 -16.630700 -2.192510 6.469440 -0.000001 172.615000 21.293400 -175.018000 -39.081100 -0.002282 -0.040193 -0.223074 0.386310 30.370400 -40.985400 0.000008 0.000006 4.126330 14.322500 -72.795900 -11.754300 -0.000006 -0.000006 -0.001310 -0.019719 -17.375000
0.000000 0.000000 0.000000 0.000000 0.000000 -0.000000 -1.472350 90.546300 1.765180 89.876300 -1.415120 12.195400 15.735700 0.000005 -0.000001 87.163900 81.431200 -86.960300 8.984550 -0.406207 -0.000000 9.352940 -0.840394 0.475700 16.377300 -0.000001 -0.000001 9.678580 -4.499320 0.857717 6.456720 -0.000001 -0.000000 1.760300 -5.026780 0.724926 12.994200 -0.242716 4.980390 -92.182700 7.625970 -73.975900 5.348090 -0.000007 -0.000001 -52.810000 29.983300 -25.337000 24.328600 0.000019 0.000005 11.257400 23.069000 -26.929600 22.291600 -0.000001 0.000005 9.468690 5.211610 2.426800 12.994500 -0.242716 -4.980390 88.380800 11.591600 -81.992300 -5.348130 -0.000001 -0.000004 -63.163200 38.163600 -10.375100 -24.328900 0.000322 -0.000009 0.683083 2.062640 -18.354100 -22.291500 -0.000108 -0.000004 13.220600 5.391600 -2.666520 -2.192480 -6.469440 -0.000000 -173.740000 -12.371900 3.533410 39.081100 -0.000007 -0.000012 -0.210444 0.353676 30.753800 40.985400 -0.000006 -0.000013 -0.002328 6.275160 -71.668300 11.754300 -0.000000 0.000003 -0.000156 -0.001504 -16.634700 -2.192510 6.469440 -0.000001 172.538000 21.645400 -174.841000 -39.081100 -0.002282 -0.040193 -0.222636 0.384864 30.415600 -40.985400 0.000008 0.000006 4.246680 14.273700 -72.792500 -11.754300 -0.000006 -0.000006 -0.001437 -0.021430 -17.444500
0.000000 0.000000 0.000000 0.000000 0.000000 -0.000000 -1.631210 90.541900 1.610740 89.927800 -1.075400 12.448900 15.735700 0.000005 -0.000001 87.125600 81.475600 -86.895400 8.984550 -0.406207 -0.000000 9.263870 -0.847245 0.528516 16.377300 -0.000001 -0.000001 11.339100 -4.656240 0.725661 6.456720 -0.000001 -0.000000 3.517300 -5.214110 0.700657 12.994200 -0.242716 4.980390 -92.142700 7.476620 -73.958300 5.348090 -0.000007 -0.000001 -50.751900 26.624300 -28.237600 24.328600 0.000019 0.000005 12.117200 22.658400 -29.131400 22.291600 -0.000001 0.000005 9.580740 5.209730 2.474090 12.994500 -0.242716 -4.980390 88.357800 11.571300 -81.865900 -5.348130 -0.000001 -0.000004 -63.348600 38.650100 -10.234500 -24.328900 0.000322 -0.000009 0.756389 2.296160 -18.261900 -22.291500 -0.000108 -0.000004 13.145300 5.389140 -2.587700 -2.192480 -6.469440 -0.000000 -173.667000 -12.179700 3.595980 39.081100 -0.000007 -0.000012 -0.213678 0.358200 30.817800 40.985400 -0.000006 -0.000013 -0.050142 6.480790 -71.541700 11.754300 -0.000000 0.000003 -0.000141 -0.001378 -16.630000 -2.192510 6.469440 -0.000001 172.463000 21.926200 -174.669000 -39.081100 -0.002282 -0.040193 -0.220831 0.380134 30.524500 -40.985400 0.000008 0.000006 4.370420 14.177200 -72.812400 -11.754300 -0.000006 -0.000006 -0.001318 -0.019821 -17.379100
0.000000 0.000000 0.000000 0.000000 0.000000 -0.000000 -1.799900 90.528200 1.477460 89.983500 -0.738058 12.817700 15.735700 0.000005 -0.000001 87.003500 81.465800 -86.748000 8.984550 -0.406207 -0.000000 9.281930 -0.883959 0.582238 16.377300 -0.000001 -0.000001 12.947300 -4.755080 0.648524 6.456720 -0.000001 -0.000000 5.056780 -5.289700 0.581767 12.994200 -0.242716 4.980390 -92.076300 7.252960 -73.978500 5.348090 -0.000007 -0.000001 -48.948500 22.791100 -31.232500 24.328600 0.000019 0.000005 12.812400 21.732200 -31.559100 22.291600 -0.000001 0.000005 9.839020 5.206960 2.543910 12.994500 -0.242716 -4.980390 88.334300 11.482400 -81.688900 -5.348130 -0.000001 -0.000004 -63.497800 38.759800 -10.254000 -24.328900 0.000322 -0.000009 0.768825 2.347860 -18.160400 -22.291500 -0.000108 -0.000004 13.093700 5.390300 -2.624860 -2.192480 -6.469440 -0.000000 -173.553000 -12.001200 3.782760 39.081100 -0.000007 -0.000012 -0.218197 0.364537 30.903400 40.985400 -0.000006 -0.000013 -0.101278 6.710230 -71.439500 11.754300 -0.000000 0.000003 -0.000151 -0.001463 -16.633100 -2.192510 6.469440 -0.000001 172.362000 22.109900 -174.373000 -39.081100 -0.002282 -0.040193 -0.219085 0.375180 30.657400 -40.985400 0.000008 0.000006 4.487170 14.026600 -72.864400 -11.754300 -0.000006 -0.000006 -0.001322 -0.019881 -17.381600
0.000000 0.000000 0.000000 0.000000 0.000000 -0.000000 -1.970720 90.505100 1.333580 90.027600 -0.511673 13.179000 15.735700 0.000005 -0.000001 86.827700 81.443900 -86.543200 8.984550 -0.406207 -0.000000 9.323330 -0.937829 0.645118 16.377300 -0.000001 -0.000001 14.498500 -4.821760 0.547744 6.456720 -0.000001 -0.000000 6.435820 -5.353690 0.431924 12.994200 -0.242716 4.980390 -91.961600 6.889430 -74.064700 5.348090 -0.000007 -0.000001 -47.384100 18.787100 -34.226700 24.328600 0.000019 0.000005 13.273200 20.350500 -34.150500 22.291600 -0.000001 0.000005 10.217400 5.199080 2.742370 12.994500 -0.242716 -4.980390 88.333100 11.361500 -81.596800 -5.348130 -0.000001 -0.000004 -63.629800 38.482800 -10.315300 -24.328900 0.000322 -0.000009 0.772050 2.355120 -18.179000 -22.291500 -0.000108 -0.000004 13.258100 5.389470 -2.598540 -2.192480 -6.469440 -0.000000 -173.459000 -11.805600 3.940780 39.081100 -0.000007 -0.000012 -0.218509 0.363061 31.042100 40.985400 -0.000006 -0.000013 -0.173595 6.821830 -71.369600 11.754300 -0.000000 0.000003 -0.000151 -0.001458 -16.633000 -2.192510 6.469440 -0.000001 172.315000 22.183200 -174.147000 -39.081100 -0.002282 -0.040193 -0.218279 0.371049 30.844700 -40.985400 0.000008 0.000006 4.599420 13.837900 -72.924200 -11.754300 -0.000006 -0.000006 -0.001326 -0.019932 -17.383600
